# xmcd
#
# Track frame offsets: 
#        150
#        9572
#        22602
#        36447
#        48220
#        59752
#        75555
#        91220
#        107287
#        125705
#        137925
#        149060
#        164135
#        181320
#        200180
#        217707
#
# Disc length: 3691 seconds
#
# Revision: 2
# Processed by: cddbd v1.4PL0 Copyright (c) Steve Scherf et al.
# Submitted via: ExactAudioCopy v0.90b4
#
DISCID=e40e6910
DTITLE=Country pisnicky - z radia 2
DYEAR=1997
DGENRE=Country
TTITLE0=Rangers - Zuzana
TTITLE1=Mirek Hoffmann - A slunce pali
TTITLE2=Stare sedlo - Proklety buick
TTITLE3=Kocabka - Kocabka
TTITLE4=KTO - Loudavej vlak
TTITLE5=Fragment Brokatove leto
TTITLE6=Jindra Stahlavsky - Plana Jane
TTITLE7=Dokloubouku - Ve skalach
TTITLE8=Netto - Zas bude fajn
TTITLE9=Mustangove - Reka huci
TTITLE10=Jan Nedved a Rangers - Zlomena ruze
TTITLE11=Delova koule - Rychlejsi kone
TTITLE12=Michal Tucny - Stastne stare slunce
TTITLE13=country Dedows - Par radku
TTITLE14=Zelenaci - Zlaty klic
TTITLE15=Stare sedlo - smes
EXTD=YEAR: 1997
EXTT0=
EXTT1=
EXTT2=
EXTT3=
EXTT4=
EXTT5=
EXTT6=
EXTT7=
EXTT8=
EXTT9=
EXTT10=
EXTT11=
EXTT12=
EXTT13=
EXTT14=
EXTT15=
PLAYORDER=
